<svg width="1016" height="193" viewBox="0 0 1016 193" fill="none" xmlns="http://www.w3.org/2000/svg">
<path d="M68.8 191.86C53.72 191.86 40.72 189.433 29.8 184.58C19.0533 179.553 9.17333 172.013 0.16 161.96L26.68 135.7C32.5733 142.46 39.0733 147.747 46.18 151.56C53.46 155.2 61.8667 157.02 71.4 157.02C80.0667 157.02 86.74 155.46 91.42 152.34C96.2733 149.22 98.7 144.887 98.7 139.34C98.7 134.313 97.14 130.24 94.02 127.12C90.9 124 86.74 121.313 81.54 119.06C76.5133 116.807 70.88 114.64 64.64 112.56C58.5733 110.48 52.5067 108.14 46.44 105.54C40.3733 102.767 34.74 99.3867 29.54 95.4C24.5133 91.24 20.44 86.1267 17.32 80.06C14.2 73.82 12.64 66.02 12.64 56.66C12.64 45.3933 15.3267 35.6867 20.7 27.54C26.2467 19.3933 33.8733 13.24 43.58 9.07999C53.2867 4.74666 64.4667 2.58 77.12 2.58C89.9467 2.58 101.647 4.83333 112.22 9.33999C122.967 13.8467 131.807 20 138.74 27.8L112.22 54.06C106.673 48.34 101.04 44.0933 95.32 41.32C89.7733 38.5467 83.4467 37.16 76.34 37.16C69.2333 37.16 63.6 38.5467 59.44 41.32C55.28 43.92 53.2 47.7333 53.2 52.76C53.2 57.44 54.76 61.2533 57.88 64.2C61 66.9733 65.0733 69.4 70.1 71.48C75.3 73.56 80.9333 75.64 87 77.72C93.24 79.8 99.3933 82.2267 105.46 85C111.527 87.7733 117.073 91.3267 122.1 95.66C127.3 99.82 131.46 105.193 134.58 111.78C137.7 118.193 139.26 126.167 139.26 135.7C139.26 153.207 133.02 166.987 120.54 177.04C108.06 186.92 90.8133 191.86 68.8 191.86ZM269.782 189V116.98C269.782 110.393 267.702 105.107 263.542 101.12C259.555 96.96 254.442 94.88 248.202 94.88C243.869 94.88 240.055 95.8333 236.762 97.74C233.469 99.4733 230.869 102.073 228.962 105.54C227.055 108.833 226.102 112.647 226.102 116.98L210.762 109.44C210.762 99.56 212.842 90.8933 217.002 83.44C221.162 75.9867 226.969 70.2667 234.422 66.28C241.875 62.12 250.455 60.04 260.162 60.04C270.042 60.04 278.709 62.12 286.162 66.28C293.615 70.2667 299.335 75.9 303.322 83.18C307.482 90.2867 309.562 98.6067 309.562 108.14V189H269.782ZM186.322 189V0.239997H226.102V189H186.322ZM359.811 189V62.64H399.591V189H359.811ZM379.831 45.22C373.591 45.22 368.391 43.14 364.231 38.98C360.244 34.6467 358.251 29.4467 358.251 23.38C358.251 17.14 360.244 11.94 364.231 7.77999C368.391 3.61999 373.591 1.54 379.831 1.54C386.071 1.54 391.184 3.61999 395.171 7.77999C399.158 11.94 401.151 17.14 401.151 23.38C401.151 29.4467 399.158 34.6467 395.171 38.98C391.184 43.14 386.071 45.22 379.831 45.22ZM514.704 191.86C501.011 191.86 488.791 189.087 478.044 183.54C467.471 177.82 459.151 169.933 453.084 159.88C447.017 149.827 443.984 138.473 443.984 125.82C443.984 113.167 446.931 101.9 452.824 92.02C458.891 81.9667 467.037 74.08 477.264 68.36C487.491 62.64 499.017 59.78 511.844 59.78C524.324 59.78 535.331 62.4667 544.864 67.84C554.397 73.2133 561.851 80.6667 567.224 90.2C572.771 99.7333 575.544 110.653 575.544 122.96C575.544 125.213 575.371 127.64 575.024 130.24C574.851 132.667 574.417 135.527 573.724 138.82L464.784 139.08V111.78L556.824 111.52L539.664 122.96C539.491 115.68 538.364 109.7 536.284 105.02C534.204 100.167 531.084 96.5267 526.924 94.1C522.937 91.5 517.997 90.2 512.104 90.2C505.864 90.2 500.404 91.6733 495.724 94.62C491.217 97.3933 487.664 101.38 485.064 106.58C482.637 111.78 481.424 118.107 481.424 125.56C481.424 133.013 482.724 139.427 485.324 144.8C488.097 150 491.911 154.073 496.764 157.02C501.791 159.793 507.684 161.18 514.444 161.18C520.684 161.18 526.317 160.14 531.344 158.06C536.371 155.807 540.791 152.513 544.604 148.18L566.444 170.02C560.204 177.3 552.664 182.76 543.824 186.4C534.984 190.04 525.277 191.86 514.704 191.86ZM665.465 192.12C658.012 192.12 650.645 191.167 643.365 189.26C636.259 187.353 629.585 184.667 623.345 181.2C617.279 177.56 612.079 173.4 607.745 168.72L630.365 145.84C634.525 150.347 639.465 153.9 645.185 156.5C650.905 158.927 657.145 160.14 663.905 160.14C668.585 160.14 672.139 159.447 674.565 158.06C677.165 156.673 678.465 154.767 678.465 152.34C678.465 149.22 676.905 146.88 673.785 145.32C670.839 143.587 667.025 142.113 662.345 140.9C657.665 139.513 652.725 138.04 647.525 136.48C642.325 134.92 637.385 132.753 632.705 129.98C628.025 127.207 624.212 123.393 621.265 118.54C618.319 113.513 616.845 107.187 616.845 99.56C616.845 91.4133 618.925 84.3933 623.085 78.5C627.245 72.4333 633.139 67.6667 640.765 64.2C648.392 60.7333 657.319 59 667.545 59C678.292 59 688.172 60.9067 697.185 64.72C706.372 68.36 713.825 73.82 719.545 81.1L696.925 103.98C692.939 99.3 688.432 96.0067 683.405 94.1C678.552 92.1933 673.785 91.24 669.105 91.24C664.599 91.24 661.219 91.9333 658.965 93.32C656.712 94.5333 655.585 96.3533 655.585 98.78C655.585 101.38 657.059 103.46 660.005 105.02C662.952 106.58 666.765 107.967 671.445 109.18C676.125 110.393 681.065 111.867 686.265 113.6C691.465 115.333 696.405 117.673 701.085 120.62C705.765 123.567 709.579 127.553 712.525 132.58C715.472 137.433 716.945 143.847 716.945 151.82C716.945 164.127 712.265 173.92 702.905 181.2C693.719 188.48 681.239 192.12 665.465 192.12ZM781.168 189V10.38H820.948V189H781.168ZM752.568 96.44V62.64H849.548V96.44H752.568ZM942.016 191.6C930.403 191.6 920.003 188.74 910.816 183.02C901.803 177.3 894.609 169.5 889.236 159.62C884.036 149.74 881.436 138.473 881.436 125.82C881.436 113.167 884.036 101.9 889.236 92.02C894.609 82.14 901.803 74.34 910.816 68.62C920.003 62.9 930.403 60.04 942.016 60.04C950.509 60.04 958.136 61.6867 964.896 64.98C971.829 68.2733 977.463 72.8667 981.796 78.76C986.129 84.48 988.556 91.0667 989.076 98.52V153.12C988.556 160.573 986.129 167.247 981.796 173.14C977.636 178.86 972.089 183.367 965.156 186.66C958.223 189.953 950.509 191.6 942.016 191.6ZM950.076 155.72C958.569 155.72 965.416 152.947 970.616 147.4C975.816 141.68 978.416 134.487 978.416 125.82C978.416 119.927 977.203 114.727 974.776 110.22C972.523 105.713 969.229 102.247 964.896 99.82C960.736 97.22 955.883 95.92 950.336 95.92C944.789 95.92 939.849 97.22 935.516 99.82C931.356 102.247 927.976 105.713 925.376 110.22C922.949 114.727 921.736 119.927 921.736 125.82C921.736 131.54 922.949 136.653 925.376 141.16C927.803 145.667 931.183 149.22 935.516 151.82C939.849 154.42 944.703 155.72 950.076 155.72ZM976.856 189V154.94L982.836 124.26L976.856 93.58V62.64H1015.86V189H976.856Z" fill="white"/>
</svg>
